<?xml version="1.0" encoding="UTF-8" standalone="no"?>
<!-- Created with Inkscape (http://www.inkscape.org/) -->

<svg
   xmlns:dc="http://purl.org/dc/elements/1.1/"
   xmlns:cc="http://creativecommons.org/ns#"
   xmlns:rdf="http://www.w3.org/1999/02/22-rdf-syntax-ns#"
   xmlns:svg="http://www.w3.org/2000/svg"
   xmlns="http://www.w3.org/2000/svg"
   xmlns:sodipodi="http://sodipodi.sourceforge.net/DTD/sodipodi-0.dtd"
   xmlns:inkscape="http://www.inkscape.org/namespaces/inkscape"
   version="1.1"
   id="svg869"
   width="444"
   height="262"
   viewBox="0 0 444 262"
   sodipodi:docname="Bikeshop1.svg"
   inkscape:version="0.92.2 5c3e80d, 2017-08-06">
  <metadata
     id="metadata875">
    <rdf:RDF>
      <cc:Work
         rdf:about="">
        <dc:format>image/svg+xml</dc:format>
        <dc:type
           rdf:resource="http://purl.org/dc/dcmitype/StillImage" />
        <dc:title />
      </cc:Work>
    </rdf:RDF>
  </metadata>
  <defs
     id="defs873" />
  <sodipodi:namedview
     pagecolor="#ffffff"
     bordercolor="#666666"
     borderopacity="1"
     objecttolerance="10"
     gridtolerance="10"
     guidetolerance="10"
     inkscape:pageopacity="0"
     inkscape:pageshadow="2"
     inkscape:window-width="1236"
     inkscape:window-height="747"
     id="namedview871"
     showgrid="false"
     inkscape:zoom="1.1769187"
     inkscape:cx="158.17065"
     inkscape:cy="131"
     inkscape:window-x="0"
     inkscape:window-y="0"
     inkscape:window-maximized="0"
     inkscape:current-layer="svg869" />
  <path
     style="fill:none;fill-opacity:1;stroke:#110039;stroke-width:20;stroke-opacity:1;stroke-miterlimit:4;stroke-dasharray:none"
     d="M 68.879006,251.54208 C 51.074961,246.59491 38.096295,238.1395 27.209565,224.39504 -2.2355709,187.2207 6.0901841,132.18743 45.077273,106.28937 58.228844,97.553137 71.092763,93.72052 87.042341,93.78649 c 11.15,0.04612 19.079119,1.640348 28.742939,5.779057 l 6.26342,2.682423 1.16696,-2.927647 c 0.64182,-1.610204 5.61614,-15.793908 11.05403,-31.519343 l 9.88708,-28.591698 -3.42089,-6.376074 -3.4209,-6.376074 6.98817,-7.845956 6.98817,-7.845957 h 14.75356 14.75356 l 0.51222,3.892554 c 0.28171,2.140904 0.3114,4.223734 0.066,4.628512 -0.24548,0.404776 -6.27149,0.735957 -13.39119,0.735957 h -12.94491 l -2.58236,2.747451 -2.58236,2.747453 2.86653,5.48202 c 1.5766,3.015111 2.86654,6.154735 2.86654,6.976942 0,1.177055 -3.97124,16.506829 -6.91967,26.711267 -0.44207,1.530026 2.53089,1.619979 53.54022,1.619979 h 54.00828 l 0.8962,-2.620496 0.89621,-2.620496 -8.49191,-2.432905 c -9.52814,-2.729785 -18.32712,-6.823739 -19.80752,-9.215967 -0.75673,-1.222839 -0.62352,-1.95647 0.57754,-3.180727 1.26733,-1.291799 4.17008,-1.726873 15.42344,-2.311715 50.39708,-2.619159 52.45939,-2.589697 52.45939,0.749439 0,2.253885 -4.15571,7.461281 -8.05163,10.089265 -1.85012,1.24799 -6.41138,3.057944 -10.13614,4.022121 l -6.77229,1.753048 -2.09232,5.429898 c -1.58312,4.108406 -1.85851,5.825444 -1.13155,7.055163 0.52844,0.893895 6.24571,8.423549 12.70504,16.732563 l 11.74425,15.107293 7.0652,-3.51274 c 13.80147,-6.861964 34.43627,-9.570426 48.88903,-6.417032 28.7055,6.263142 51.82208,29.101982 59.56783,58.852142 2.73739,10.51385 2.76893,27.48055 0.0719,38.69561 -6.67783,27.76889 -26.47406,49.33313 -53.28261,58.04134 -8.56175,2.78111 -27.11534,3.56901 -36.44507,1.54768 -26.47277,-5.73543 -48.25293,-25.59882 -58.03236,-52.92522 -0.91103,-2.54568 -1.72171,-4.73424 -1.8015,-4.86348 -0.49135,-0.79586 -23.61459,4.44804 -23.93505,5.428 -0.21164,0.64717 -1.51771,2.2429 -2.90238,3.54604 l -2.51759,2.36936 2.00425,10.18272 2.00425,10.18273 2.91709,0.29008 c 2.36783,0.23545 2.91711,0.69615 2.91711,2.44664 0,2.7896 -1.43767,3.28034 -9.61003,3.28034 h -6.73697 v -2.7771 c 0,-2.16871 0.40171,-2.77711 1.83364,-2.77711 1.44876,0 1.72549,-0.43718 1.31841,-2.08283 -0.28337,-1.14556 -1.41555,-5.7295 -2.51594,-10.18654 -1.84515,-7.47365 -2.24273,-8.22936 -5.11356,-9.71987 -4.36747,-2.26756 -6.64707,-5.79133 -6.5876,-10.18302 0.0477,-3.51933 -1.43686,-5.4129 -37.62993,-47.99929 -20.72375,-24.38446 -38.02109,-44.45899 -38.43854,-44.61005 -0.41746,-0.15106 -1.41093,1.67555 -2.20771,4.05912 l -1.44869,4.33377 7.479,8.03808 c 8.64827,9.29478 13.95637,18.26485 17.82892,30.12879 4.98929,15.28516 5.53351,28.34318 1.85996,44.62742 -6.06952,26.90516 -26.35365,48.94639 -53.07739,57.6752 -9.182289,2.99922 -29.954557,3.53511 -39.051164,1.00746 z M 104.29751,235.7126 c 10.25985,-3.25506 17.38911,-7.81403 25.91371,-16.57111 12.53785,-12.87976 18.32246,-27.19648 18.36495,-45.45268 0.0391,-16.82996 -5.57376,-32.00381 -16.1475,-43.65265 l -3.47257,-3.82564 -3.43918,7.59188 c -5.31305,11.72837 -10.86792,19.45737 -21.23587,29.54737 -5.235619,5.09525 -9.519289,9.8993 -9.519289,10.67565 0,2.33602 -3.89829,6.10847 -6.92278,6.69931 -2.30161,0.44962 -3.4054,0.0355 -5.85767,-2.19796 -5.322013,-4.84703 -3.702225,-11.53952 3.53941,-14.62369 4.47488,-1.90582 16.108489,-13.72857 21.076669,-21.4193 4.10186,-6.34969 9.09082,-17.20647 10.44427,-22.7284 0.5957,-2.43037 0.32858,-2.69474 -5.39577,-5.3404 -9.46912,-4.37641 -16.798959,-5.77276 -27.782129,-5.29258 -16.342346,0.71447 -29.408658,6.54698 -40.894107,18.25418 -33.8680709,34.52203 -19.941134,93.72465 25.455269,108.20891 8.421485,2.68698 9.387556,2.80581 19.979668,2.45754 6.50866,-0.214 11.55381,-0.95379 15.892919,-2.33043 z m 248.83769,-0.006 c 10.24957,-3.24276 17.3848,-7.804 25.91371,-16.5655 12.65766,-13.00285 18.3676,-27.109 18.39851,-45.45268 0.0518,-30.71762 -20.17227,-56.93631 -48.95276,-63.463 -8.44363,-1.9148 -24.39459,-1.42347 -32.14022,0.99 -7.19434,2.24169 -13.73153,5.21355 -13.42904,6.10494 0.14335,0.42243 7.61678,10.98744 16.60763,23.47781 10.69647,14.85986 17.05828,22.90532 18.40474,23.27551 5.51182,1.51545 7.59264,10.22004 3.40229,14.23269 -1.83606,1.75819 -3.40999,2.20816 -8.40054,2.4016 -5.30857,0.20577 -56.15246,9.8607 -57.11975,10.84668 -0.52902,0.53923 1.87508,7.07446 4.68952,12.7479 8.19687,16.52343 23.60447,28.39969 42.6564,32.87976 7.62544,1.79312 21.85161,1.09261 29.96951,-1.47571 z m -99.35087,-54.2709 4.18013,-0.54404 0.56527,-10.77582 c 1.1673,-22.25257 7.94428,-39.41817 21.33153,-54.0312 l 4.00883,-4.37588 -6.86499,-8.58394 C 266.41638,89.884703 264.80064,88.025289 264.31754,88.52376 c -0.49743,0.513262 -29.6981,92.9595 -29.6981,94.02106 0,0.63797 10.33771,0.0396 19.16489,-1.10917 z m 46.02195,-8.34423 c 14.12488,-2.38487 25.56778,-4.68269 25.42867,-5.10628 -0.13911,-0.42358 -7.58122,-10.63595 -16.53803,-22.69416 l -16.28511,-21.92402 -4.4045,5.02668 c -5.92366,6.76042 -11.23027,17.97348 -12.89311,27.24353 -1.52932,8.52574 -2.50118,21.74539 -1.60061,21.7722 0.33611,0.01 12.16781,-1.93308 26.29269,-4.31795 z m -84.74742,-8.11238 c -0.48885,-3.3229 -0.99923,-4.25056 -2.33854,-4.25056 -1.29813,0 -1.71322,-0.67286 -1.71322,-2.77711 v -2.7771 h 6.71409 c 5.28459,0 6.83146,0.31175 7.26533,1.46426 1.0223,2.71549 0.56156,4.08995 -1.371,4.08995 -1.55026,0 -1.81628,0.40307 -1.37466,2.08283 0.30119,1.14556 0.56562,3.12424 0.58762,4.39709 0.0306,1.76799 0.22653,1.9865 0.83015,0.9257 0.43457,-0.76371 6.8091,-20.34231 14.1656,-43.50801 7.35651,-23.16569 13.57105,-42.640152 13.81009,-43.276572 C 251.97901,80.431863 240.8831,80.19244 198.008,80.19244 h -54.06092 l -0.58372,2.708981 c -0.54407,2.524975 1.8661,5.575611 35.4828,44.911749 19.83659,23.21152 36.24011,42.02582 36.45228,41.80956 0.21216,-0.21626 0.10435,-2.30592 -0.23958,-4.6437 z"
     id="path1473"
     inkscape:connector-curvature="0" />
</svg>
