<?xml version="1.0" encoding="UTF-8" standalone="no"?>
<!-- Created with Inkscape (http://www.inkscape.org/) -->

<svg
   xmlns:dc="http://purl.org/dc/elements/1.1/"
   xmlns:cc="http://creativecommons.org/ns#"
   xmlns:rdf="http://www.w3.org/1999/02/22-rdf-syntax-ns#"
   xmlns:svg="http://www.w3.org/2000/svg"
   xmlns="http://www.w3.org/2000/svg"
   xmlns:sodipodi="http://sodipodi.sourceforge.net/DTD/sodipodi-0.dtd"
   xmlns:inkscape="http://www.inkscape.org/namespaces/inkscape"
   version="1.1"
   id="svg855"
   width="225"
   height="225"
   viewBox="0 0 225 225"
   sodipodi:docname="school.svg"
   inkscape:version="0.92.2 5c3e80d, 2017-08-06">
  <metadata
     id="metadata861">
    <rdf:RDF>
      <cc:Work
         rdf:about="">
        <dc:format>image/svg+xml</dc:format>
        <dc:type
           rdf:resource="http://purl.org/dc/dcmitype/StillImage" />
        <dc:title />
      </cc:Work>
    </rdf:RDF>
  </metadata>
  <defs
     id="defs859" />
  <sodipodi:namedview
     pagecolor="#ffffff"
     bordercolor="#666666"
     borderopacity="1"
     objecttolerance="10"
     gridtolerance="10"
     guidetolerance="10"
     inkscape:pageopacity="0"
     inkscape:pageshadow="2"
     inkscape:window-width="1280"
     inkscape:window-height="719"
     id="namedview857"
     showgrid="false"
     inkscape:zoom="1.7033417"
     inkscape:cx="36.73893"
     inkscape:cy="112.5"
     inkscape:window-x="0"
     inkscape:window-y="0"
     inkscape:window-maximized="0"
     inkscape:current-layer="svg855" />
  <path
     style="fill:#852500;fill-opacity:1"
     d="m -0.17416518,170.67129 v -4 H 40.825835 c 40.33334,0 41,-0.0325 41,-2 0,-1.96396 -0.66666,-2 -37,-2 H 7.8258348 v -4.5 -4.5 h 5.0000002 5 v -36 -35.999997 h 32 32 v -3.328844 c 0,-3.137389 0.81958,-3.917302 14.250003,-13.560376 7.837502,-5.627342 14.581152,-10.316862 14.985902,-10.421155 0.40474,-0.104294 7.26724,4.499895 15.25,10.231531 13.69169,9.830664 14.5141,10.609777 14.5141,13.75 v 3.328844 l 32.25,-1.63e-4 32.25,-1.63e-4 -0.15502,36.000163 -0.15503,36.00016 h 4.90503 4.90502 v 4.5 4.5 h -37 c -36.33333,0 -37,0.036 -37,2 0,1.96748 0.66667,2 41,2 h 41 v 4 4 h -111.5 H -0.17416518 Z M 120.73106,155.72987 c 0.96607,-0.59707 1.1877,-4.88191 0.93128,-18.00481 l -0.3365,-17.22127 -3.26578,-2.91625 c -5.11135,-4.5643 -12.20615,-3.61952 -15.56895,2.07325 -1.37275,2.32389 -1.66527,5.72136 -1.66527,19.34147 0,14.91003 0.17078,16.56309 1.75,16.93951 3.14882,0.75056 16.85681,0.59056 18.15522,-0.2119 z M 40.825835,130.67129 v -9 h -5 -5 v 9 9 h 5 5 z m 16,-0.0523 v -9.05226 l -5.24842,0.30226 -5.24841,0.30226 -0.24117,7.5 c -0.13265,4.125 -0.035,8.0625 0.21703,8.75 0.2836,0.77366 2.37552,1.25 5.48959,1.25 l 5.03138,4e-5 v -9.05226 z m 16,0.0523 v -9 h -5.5 -5.5 v 9 9 h 5.5 5.5 z m 87.788935,-0.25 0.28894,-8.75 h -5.53894 -5.53893 v 9.05226 9.05226 l 5.25,-0.30226 5.25,-0.30226 z m 15.21107,0.25 v -9 h -5 -5 v 9 9 h 5 5 z m 16,0 v -9 h -5.5 -5.5 v 8.33333 c 0,4.58334 0.3,8.63334 0.66667,9 0.36666,0.36667 2.84166,0.66667 5.5,0.66667 h 4.83333 z m -151.000005,-24.5 v -8.499997 h -5 -5 v 8.499997 8.5 h 5 5 z m 16,-0.0523 v -8.552257 l -5.25,0.30226 -5.25,0.30226 -0.22807,8.249997 -0.22807,8.25 h 5.47807 5.47807 z m 16,0.0523 v -8.499997 h -5.5 -5.5 v 8.499997 8.5 h 5.5 5.5 z m 88.000005,0 v -8.499997 h -5.5 -5.5 v 8.499997 8.5 h 5.5 5.5 z m 15,0 v -8.499997 h -5 -5 v 8.499997 8.5 h 5 5 z m 16,0 v -8.499997 h -5.5 -5.5 v 8.499997 8.5 h 5.5 5.5 z m -72.4,-19.899997 c 2.62454,-2.624542 3.4,-4.2324 3.4,-7.04966 0,-9.8831 -9.6352,-15.74406 -17.43257,-10.603995 -5.409662,3.566069 -6.989924,9.402179 -4.07314,15.042611 2.15206,4.161624 5.32975,6.011044 10.32822,6.011044 3.64499,0 4.94642,-0.56893 7.77749,-3.4 z m -16.6,-6.542502 c 0,-0.518376 1.9125,-1.080876 4.25,-1.25 4.23327,-0.306288 4.25121,-0.324318 4.55861,-4.580291 0.41943,-5.807093 2.19139,-4.32589 2.19139,1.83181 v 4.940983 h -5.5 c -3.025,0 -5.5,-0.424126 -5.5,-0.942502 z m -30.808185,-6.136768 0.30818,-5.42073 18.701528,-14 18.701527,-14 0.0485,-9.25 0.0485,-9.25 h 11 11 v 6 6 h -9.5 -9.5 l 0.0392,3.25 c 0.0368,3.046012 1.22685,4.128717 18.96076,17.25 l 18.92153,14 0.0392,4.785184 c 0.0481,5.86448 1.8467,6.756067 -21.43516,-10.62563 L 111.37703,48.911573 92.851434,62.957269 c -10.189079,7.725132 -19.114279,14.497898 -19.833779,15.05059 -1.04776,0.804849 -1.24683,-0.07422 -1,-4.415836 z"
     id="path2052"
     inkscape:connector-curvature="0" />
</svg>
