<?xml version="1.0" encoding="UTF-8" standalone="no"?>
<svg
   xmlns:dc="http://purl.org/dc/elements/1.1/"
   xmlns:cc="http://creativecommons.org/ns#"
   xmlns:rdf="http://www.w3.org/1999/02/22-rdf-syntax-ns#"
   xmlns:svg="http://www.w3.org/2000/svg"
   xmlns="http://www.w3.org/2000/svg"
   xmlns:sodipodi="http://sodipodi.sourceforge.net/DTD/sodipodi-0.dtd"
   xmlns:inkscape="http://www.inkscape.org/namespaces/inkscape"
   enable-background="new 0 0 580 580"
   height="580"
   viewBox="0 0 580 580"
   width="580"
   version="1.1"
   id="svg851"
   sodipodi:docname="transit.svg"
   inkscape:version="0.92.2 5c3e80d, 2017-08-06">
  <metadata
     id="metadata857">
    <rdf:RDF>
      <cc:Work
         rdf:about="">
        <dc:format>image/svg+xml</dc:format>
        <dc:type
           rdf:resource="http://purl.org/dc/dcmitype/StillImage" />
      </cc:Work>
    </rdf:RDF>
  </metadata>
  <defs
     id="defs855" />
  <sodipodi:namedview
     pagecolor="#ffffff"
     bordercolor="#666666"
     borderopacity="1"
     objecttolerance="10"
     gridtolerance="10"
     guidetolerance="10"
     inkscape:pageopacity="0"
     inkscape:pageshadow="2"
     inkscape:window-width="1168"
     inkscape:window-height="683"
     id="namedview853"
     showgrid="false"
     inkscape:zoom="0.93448276"
     inkscape:cx="290"
     inkscape:cy="290"
     inkscape:window-x="0"
     inkscape:window-y="0"
     inkscape:window-maximized="0"
     inkscape:current-layer="svg851" />
  <path
     d="m403.404 434.67c28.344-4.567 56.564-34.117 56.564-70.145v-263.405c0-37.188-31.305-71.319-73.807-71.319l-90.566-.069-91.257.069c-42.503 0-73.773 34.132-73.773 71.319v263.405c0 36.027 28.187 65.577 56.53 70.145l-85.002 127.505h49.066l60.781-89.115h83.241.068.069 83.24l60.781 89.115h49.066zm-156.046-377.779c0-6.466 5.627-11.887 12.094-11.887h35.729.068.069 35.729c6.467 0 12.094 5.42 12.094 11.887v20.94c0 6.466-5.319 12.024-12.094 12.024h-35.729-.069-.068-35.729c-6.774 0-12.094-5.558-12.094-12.024zm-44.574 339.355c-17.866 0-32.343-14.478-32.343-32.342 0-17.867 14.477-32.344 32.343-32.344 17.866 0 32.377 14.477 32.377 32.344 0 17.865-14.512 32.342-32.377 32.342zm92.466-171.111h-.068-88.39c-20.324 0-36.953-13.979-36.766-36.766v-47.408c0-19.707 12.747-36.903 36.766-36.903h88.39.138 88.389c24.019 0 36.766 17.196 36.766 36.903v47.408c.188 22.787-16.442 36.766-36.766 36.766h-88.389zm59.364 138.769c0-17.867 14.477-32.344 32.342-32.344 17.866 0 32.343 14.477 32.343 32.344 0 17.864-14.477 32.342-32.343 32.342-17.865 0-32.342-14.477-32.342-32.342z"
     fill="param(fill)"
     fill-opacity="param(fill-opacity)"
     stroke="param(outline)"
     stroke-opacity="param(outline-opacity)"
     stroke-width="param(outline-width)"
     id="path849"
     style="fill:#e10000;fill-opacity:1" />
</svg>
